HIERARCHY
ROOT joint_Root
{
	OFFSET 0.0 0.0 0.0
	CHANNELS 6 Xposition Yposition Zposition Zrotation Xrotation Yrotation 
	JOINT Hips
	{
		OFFSET -0.726466 93.3139 -2.00062
		CHANNELS 6 Xposition Yposition Zposition Zrotation Xrotation Yrotation 
		JOINT Spine
		{
			OFFSET 15.7357 0.0 0.0
			CHANNELS 6 Xposition Yposition Zposition Zrotation Xrotation Yrotation 
			JOINT Chest
			{
				OFFSET 8.98455 -0.406207 0.0
				CHANNELS 6 Xposition Yposition Zposition Zrotation Xrotation Yrotation 
				JOINT Neck
				{
					OFFSET 16.3773 0.0 0.0
					CHANNELS 6 Xposition Yposition Zposition Zrotation Xrotation Yrotation 
					JOINT Head
					{
						OFFSET 6.45672 0.0 0.0
						CHANNELS 6 Xposition Yposition Zposition Zrotation Xrotation Yrotation 
						End Site
						{
							OFFSET 0.0 0.0 0.0
						}
					}
				}
				JOINT Shoulder_L
				{
					OFFSET 12.9942 -0.242716 4.98039
					CHANNELS 6 Xposition Yposition Zposition Zrotation Xrotation Yrotation 
					JOINT UpperArm_L
					{
						OFFSET 5.34809 0.0 0.0
						CHANNELS 6 Xposition Yposition Zposition Zrotation Xrotation Yrotation 
						JOINT LowerArm_L
						{
							OFFSET 24.3286 1.87007e-05 0.0
							CHANNELS 6 Xposition Yposition Zposition Zrotation Xrotation Yrotation 
							JOINT Hand_L
							{
								OFFSET 22.2916 0.0 0.0
								CHANNELS 6 Xposition Yposition Zposition Zrotation Xrotation Yrotation 
								End Site
								{
									OFFSET 0.0 0.0 0.0
								}
							}
						}
					}
				}
				JOINT Shoulder_R
				{
					OFFSET 12.9945 -0.242716 -4.98039
					CHANNELS 6 Xposition Yposition Zposition Zrotation Xrotation Yrotation 
					JOINT UpperArm_R
					{
						OFFSET -5.34813 0.0 0.0
						CHANNELS 6 Xposition Yposition Zposition Zrotation Xrotation Yrotation 
						JOINT LowerArm_R
						{
							OFFSET -24.3289 0.000322201 0.0
							CHANNELS 6 Xposition Yposition Zposition Zrotation Xrotation Yrotation 
							JOINT Hand_R
							{
								OFFSET -22.2915 -0.000108084 0.0
								CHANNELS 6 Xposition Yposition Zposition Zrotation Xrotation Yrotation 
								End Site
								{
									OFFSET 0.0 0.0 0.0
								}
							}
						}
					}
				}
			}
		}
		JOINT UpperLeg_L
		{
			OFFSET -2.19248 -6.46944 0.0
			CHANNELS 6 Xposition Yposition Zposition Zrotation Xrotation Yrotation 
			JOINT LowerLeg_L
			{
				OFFSET 39.0811 0.0 -1.23785e-05
				CHANNELS 6 Xposition Yposition Zposition Zrotation Xrotation Yrotation 
				JOINT Foot_L
				{
					OFFSET 40.9854 0.0 -1.26872e-05
					CHANNELS 6 Xposition Yposition Zposition Zrotation Xrotation Yrotation 
					JOINT Toes_L
					{
						OFFSET 11.7543 0.0 0.0
						CHANNELS 6 Xposition Yposition Zposition Zrotation Xrotation Yrotation 
						End Site
						{
							OFFSET 0.0 0.0 0.0
						}
					}
				}
			}
		}
		JOINT UpperLeg_R
		{
			OFFSET -2.19251 6.46944 0.0
			CHANNELS 6 Xposition Yposition Zposition Zrotation Xrotation Yrotation 
			JOINT LowerLeg_R
			{
				OFFSET -39.0811 -0.00228153 -0.0401928
				CHANNELS 6 Xposition Yposition Zposition Zrotation Xrotation Yrotation 
				JOINT Foot_R
				{
					OFFSET -40.9854 0.0 0.0
					CHANNELS 6 Xposition Yposition Zposition Zrotation Xrotation Yrotation 
					JOINT Toes_R
					{
						OFFSET -11.7543 0.0 0.0
						CHANNELS 6 Xposition Yposition Zposition Zrotation Xrotation Yrotation 
						End Site
						{
							OFFSET 0.0 0.0 0.0
						}
					}
				}
			}
		}
	}
}
MOTION
Frames:	6
Frame Time:	0.0333333
0.000000 0.000000 0.000000 0.000000 0.000000 -0.000000 -1.816790 93.043600 -2.315050 89.036100 -2.466030 1.719210 15.735700 0.000005 -0.000001 96.510500 86.370800 -96.627100 8.984550 -0.406207 -0.000000 -0.553495 0.831297 -0.229083 16.377300 -0.000001 -0.000001 2.062170 -3.454370 4.413550 6.456720 -0.000001 -0.000000 7.303000 -2.374640 -3.878150 12.994200 -0.242716 4.980390 -90.345000 1.090320 -72.439000 5.348090 -0.000007 -0.000001 -69.410500 37.258000 -11.480300 24.328600 0.000019 0.000005 3.803110 9.590680 -21.751100 22.291600 -0.000001 0.000005 3.536550 5.485890 -5.975310 12.994500 -0.242716 -4.980390 87.601400 8.125600 -73.492400 -5.348130 -0.000001 -0.000004 -63.006100 37.277900 -14.524400 -24.328900 0.000322 -0.000009 2.506170 7.121570 -19.452700 -22.291500 -0.000108 -0.000004 9.079390 5.282340 0.561767 -2.192480 -6.469440 -0.000000 -176.150000 -9.620420 -3.468210 39.081100 -0.000007 -0.000012 -0.061206 0.200625 16.965600 40.985400 -0.000006 -0.000013 -0.882923 4.115830 -61.772500 11.754300 -0.000000 0.000003 -0.000005 -0.000068 -16.580200 -2.192510 6.469440 -0.000001 -179.953000 11.950600 178.950000 -39.081100 -0.002282 -0.040193 -0.045797 0.194042 14.207800 -40.985400 0.000008 0.000006 1.747720 6.981120 -61.842600 -11.754300 -0.000006 -0.000006 -0.006261 -0.073189 -19.552000
0.000000 0.000000 0.000000 0.000000 0.000000 -0.000000 -1.818750 93.048500 -2.334310 89.010800 -2.426080 1.680910 15.735700 0.000005 -0.000001 96.091600 86.343200 -96.199000 8.984550 -0.406207 -0.000000 -0.493034 0.783658 -0.211320 16.377300 -0.000001 -0.000001 1.946950 -3.409930 4.439000 6.456720 -0.000001 -0.000000 7.082410 -2.297900 -4.038480 12.994200 -0.242716 4.980390 -90.328800 1.038140 -72.426300 5.348090 -0.000007 -0.000001 -69.440600 37.290200 -11.523800 24.328600 0.000019 0.000005 3.794670 9.531180 -21.828800 22.291600 -0.000001 0.000005 3.532030 5.485680 -5.967190 12.994500 -0.242716 -4.980390 87.539800 8.245660 -73.322700 -5.348130 -0.000001 -0.000004 -61.474900 37.399000 -15.789200 -24.328900 0.000322 -0.000009 3.036670 8.111160 -20.610600 -22.291500 -0.000108 -0.000004 7.918290 5.285290 0.480282 -2.192480 -6.469440 -0.000000 -176.135000 -9.583020 -3.531190 39.081100 -0.000007 -0.000012 -0.061073 0.200219 16.963300 40.985400 -0.000006 -0.000013 -0.883769 4.111060 -61.747700 11.754300 -0.000000 0.000003 -0.000004 -0.000057 -16.579700 -2.192510 6.469440 -0.000001 -179.913000 12.011700 178.932000 -39.081100 -0.002282 -0.040193 -0.044539 0.190063 14.137000 -40.985400 0.000008 0.000006 1.752210 6.997790 -61.793300 -11.754300 -0.000006 -0.000006 -0.006290 -0.073447 -19.562500
0.000000 0.000000 0.000000 0.000000 0.000000 -0.000000 -1.801070 93.058700 -2.380210 88.998700 -2.496810 1.537960 15.735700 0.000005 -0.000001 95.272700 86.344200 -95.344500 8.984550 -0.406207 -0.000000 -0.484828 0.676932 -0.140699 16.377300 -0.000001 -0.000001 1.910690 -3.291670 4.449130 6.456720 -0.000001 -0.000000 6.604490 -2.033060 -4.432220 12.994200 -0.242716 4.980390 -90.318900 1.003040 -72.360300 5.348090 -0.000007 -0.000001 -69.640300 37.080300 -11.336400 24.328600 0.000019 0.000005 3.828270 9.543750 -21.978300 22.291600 -0.000001 0.000005 3.483290 5.486190 -5.987130 12.994500 -0.242716 -4.980390 87.495500 8.226610 -73.002400 -5.348130 -0.000001 -0.000004 -59.420500 36.672900 -17.528500 -24.328900 0.000322 -0.000009 3.939760 9.267610 -23.157200 -22.291500 -0.000108 -0.000004 6.157710 5.280370 0.616414 -2.192480 -6.469440 -0.000000 -176.163000 -9.642160 -3.675360 39.081100 -0.000007 -0.000012 -0.060505 0.199029 16.909200 40.985400 -0.000006 -0.000013 -0.878443 4.065850 -61.691600 11.754300 -0.000000 0.000003 -0.000004 -0.000060 -16.579900 -2.192510 6.469440 -0.000001 -179.877000 11.927100 178.791000 -39.081100 -0.002282 -0.040193 -0.044636 0.191651 14.051600 -40.985400 0.000008 0.000006 1.730980 6.990990 -61.709700 -11.754300 -0.000006 -0.000006 -0.006499 -0.075301 -19.638100
0.000000 0.000000 0.000000 0.000000 0.000000 -0.000000 -1.746990 93.075700 -2.428700 89.009300 -2.547150 1.481080 15.735700 0.000005 -0.000001 94.019900 86.316700 -94.072000 8.984550 -0.406207 -0.000000 -0.417408 0.520026 -0.102289 16.377300 -0.000001 -0.000001 1.865080 -3.193660 4.511020 6.456720 -0.000001 -0.000000 6.108680 -1.639430 -4.824580 12.994200 -0.242716 4.980390 -90.280200 0.883372 -72.399200 5.348090 -0.000007 -0.000001 -69.919100 36.878400 -11.047400 24.328600 0.000019 0.000005 3.839350 9.507880 -22.110400 22.291600 -0.000001 0.000005 3.417720 5.484560 -5.923660 12.994500 -0.242716 -4.980390 87.445100 8.187770 -72.603500 -5.348130 -0.000001 -0.000004 -56.643900 34.982700 -19.659100 -24.328900 0.000322 -0.000009 4.668180 9.128650 -27.240100 -22.291500 -0.000108 -0.000004 4.317440 5.279500 0.640844 -2.192480 -6.469440 -0.000000 -176.223000 -9.703280 -3.694600 39.081100 -0.000007 -0.000012 -0.059090 0.196028 16.774600 40.985400 -0.000006 -0.000013 -0.841262 4.079030 -61.599300 11.754300 -0.000000 0.000003 -0.000003 -0.000049 -16.579400 -2.192510 6.469440 -0.000001 -179.898000 11.818200 178.750000 -39.081100 -0.002282 -0.040193 -0.044232 0.191849 13.924400 -40.985400 0.000008 0.000006 1.682870 6.949250 -61.593900 -11.754300 -0.000006 -0.000006 -0.006395 -0.074385 -19.600800
0.000000 0.000000 0.000000 0.000000 0.000000 -0.000000 -1.694160 93.097900 -2.491640 89.033900 -2.616180 1.367320 15.735700 0.000005 -0.000001 92.463700 86.332100 -92.502400 8.984550 -0.406207 -0.000000 -0.436885 0.318035 -0.076118 16.377300 -0.000001 -0.000001 1.966990 -3.087830 4.566420 6.456720 -0.000001 -0.000000 5.459170 -1.179800 -5.102030 12.994200 -0.242716 4.980390 -90.253200 0.795976 -72.354500 5.348090 -0.000007 -0.000001 -70.085300 36.855000 -10.820900 24.328600 0.000019 0.000005 3.871120 9.622380 -22.038700 22.291600 -0.000001 0.000005 3.432650 5.484750 -5.931120 12.994500 -0.242716 -4.980390 87.433400 7.907530 -71.953100 -5.348130 -0.000001 -0.000004 -53.308800 32.378600 -22.495300 -24.328900 0.000322 -0.000009 5.376370 8.507380 -32.467900 -22.291500 -0.000108 -0.000004 2.714170 5.275520 0.751258 -2.192480 -6.469440 -0.000000 -176.323000 -9.750870 -3.758550 39.081100 -0.000007 -0.000012 -0.056601 0.190016 16.587500 40.985400 -0.000006 -0.000013 -0.806031 4.017420 -61.469200 11.754300 -0.000000 0.000003 -0.000002 -0.000036 -16.578900 -2.192510 6.469440 -0.000001 -179.906000 11.724400 178.649000 -39.081100 -0.002282 -0.040193 -0.042605 0.187436 13.770700 -40.985400 0.000008 0.000006 1.643120 6.896730 -61.451300 -11.754300 -0.000006 -0.000006 -0.006051 -0.071294 -19.474700
0.000000 0.000000 0.000000 0.000000 0.000000 -0.000000 -1.594530 93.116000 -2.535320 89.039100 -2.724600 1.270840 15.735700 0.000005 -0.000001 91.055500 86.358600 -91.089700 8.984550 -0.406207 -0.000000 -0.484335 0.136580 -0.067775 16.377300 -0.000001 -0.000001 2.096680 -3.017120 4.727550 6.456720 -0.000001 -0.000000 4.902010 -0.708187 -5.287060 12.994200 -0.242716 4.980390 -90.237900 0.746147 -72.314900 5.348090 -0.000007 -0.000001 -70.160400 36.802200 -10.690100 24.328600 0.000019 0.000005 3.905780 9.828720 -21.799200 22.291600 -0.000001 0.000005 3.495230 5.484430 -5.918900 12.994500 -0.242716 -4.980390 87.505700 7.378430 -71.262400 -5.348130 -0.000001 -0.000004 -49.722200 28.581900 -25.863700 -24.328900 0.000322 -0.000009 6.438300 8.084290 -38.749400 -22.291500 -0.000108 -0.000004 1.742240 5.262620 1.096850 -2.192480 -6.469440 -0.000000 -176.411000 -9.828990 -3.809150 39.081100 -0.000007 -0.000012 -0.055775 0.188878 16.451600 40.985400 -0.000006 -0.000013 -0.753562 3.966080 -61.385800 11.754300 -0.000000 0.000003 -0.000003 -0.000041 -16.579100 -2.192510 6.469440 -0.000001 -179.954000 11.678200 178.578000 -39.081100 -0.002282 -0.040193 -0.041765 0.186075 13.623800 -40.985400 0.000008 0.000006 1.574220 6.958920 -61.319900 -11.754300 -0.000006 -0.000006 -0.006195 -0.072592 -19.527600
